<svg width="128" height="128" viewBox="0 0 128 128" fill="none" xmlns="http://www.w3.org/2000/svg">
<g clip-path="url(#clip0_62_2)">
<path d="M117.5 105H7C6.4 105 6 104.6 6 104C6 103.4 6.4 103 7 103H117.5C118.1 103 118.5 103.4 118.5 104C118.5 104.6 118.1 105 117.5 105Z" fill="#6B3C1C"/>
<path d="M32 49H10V104H32V49Z" fill="#AD5114"/>
<path d="M32 54H11V57H32V54Z" fill="#993F0D"/>
<path d="M32 105H10C9.4 105 9 104.6 9 104V49C9 48.4 9.4 48 10 48H32C32.6 48 33 48.4 33 49V104C33 104.5 32.6 105 32 105ZM11 103H31V50H11V103Z" fill="#6B3C1C"/>
<path d="M32 47H9V53H32V47Z" fill="#AD5114"/>
<path d="M32 54H9C8.4 54 8 53.6 8 53V47C8 46.4 8.4 46 9 46H32C32.6 46 33 46.4 33 47V53C33 53.5 32.6 54 32 54ZM10 52H31V48H10V52Z" fill="#6B3C1C"/>
<path opacity="0.5" d="M29 57H13V61H29V57Z" fill="white"/>
<path d="M29 62H13C12.4 62 12 61.6 12 61V57C12 56.4 12.4 56 13 56H29C29.6 56 30 56.4 30 57V61C30 61.6 29.6 62 29 62ZM14 60H28V58H14V60Z" fill="#6B3C1C"/>
<path opacity="0.5" d="M29 66H13V70H29V66Z" fill="white"/>
<path d="M29 71H13C12.4 71 12 70.6 12 70V66C12 65.4 12.4 65 13 65H29C29.6 65 30 65.4 30 66V70C30 70.6 29.6 71 29 71ZM14 69H28V67H14V69Z" fill="#6B3C1C"/>
<path opacity="0.5" d="M29 75H13V79H29V75Z" fill="white"/>
<path d="M29 80H13C12.4 80 12 79.6 12 79V75C12 74.4 12.4 74 13 74H29C29.6 74 30 74.4 30 75V79C30 79.6 29.6 80 29 80ZM14 78H28V76H14V78Z" fill="#6B3C1C"/>
<path opacity="0.5" d="M29 84H13V88H29V84Z" fill="white"/>
<path d="M29 89H13C12.4 89 12 88.6 12 88V84C12 83.4 12.4 83 13 83H29C29.6 83 30 83.4 30 84V88C30 88.6 29.6 89 29 89ZM14 87H28V85H14V87Z" fill="#6B3C1C"/>
<path opacity="0.5" d="M29 93H13V97H29V93Z" fill="white"/>
<path d="M29 98H13C12.4 98 12 97.6 12 97V93C12 92.4 12.4 92 13 92H29C29.6 92 30 92.4 30 93V97C30 97.6 29.6 98 29 98ZM14 96H28V94H14V96Z" fill="#6B3C1C"/>
<path opacity="0.5" d="M29 51H12C11.4 51 11 50.6 11 50C11 49.4 11.4 49 12 49H29C29.6 49 30 49.4 30 50C30 50.6 29.6 51 29 51Z" fill="white"/>
<path d="M82 104H62V22.3L82 33.7V104Z" fill="#3AD0F9"/>
<path d="M82 105H62C61.4 105 61 104.6 61 104V22.3C61 21.9 61.2 21.6 61.5 21.4C61.8 21.2 62.2 21.2 62.5 21.4L82.5 32.7C82.8 32.9 83 33.2 83 33.6V104C83 104.6 82.6 105 82 105ZM63 103H81V34.3L63 24.1V103Z" fill="#6B3C1C"/>
<path d="M66 64C65.4 64 65 63.6 65 63V32C65 31.4 65.4 31 66 31C66.6 31 67 31.4 67 32V63C67 63.6 66.6 64 66 64Z" fill="white"/>
<path d="M72 99C71.4 99 71 98.6 71 98V36C71 35.4 71.4 35 72 35C72.6 35 73 35.4 73 36V98C73 98.6 72.6 99 72 99Z" fill="white"/>
<path d="M77 99C76.4 99 76 98.6 76 98V55C76 54.4 76.4 54 77 54C77.6 54 78 54.4 78 55V98C78 98.6 77.6 99 77 99Z" fill="white"/>
<path d="M77 51C76.4 51 76 50.6 76 50V40C76 39.4 76.4 39 77 39C77.6 39 78 39.4 78 40V50C78 50.6 77.6 51 77 51Z" fill="white"/>
<path d="M115 47H94V104H115V47Z" fill="#EAEAEA"/>
<path d="M111.2 34H96.9V47H111.2V34Z" fill="#EAEAEA"/>
<path d="M114 105H94C93.4 105 93 104.6 93 104V47C93 46.4 93.4 46 94 46H114C114.6 46 115 46.4 115 47V104C115 104.5 114.6 105 114 105ZM95 103H113V48H95V103Z" fill="#6B3C1C"/>
<path d="M112 43H97V46H112V43Z" fill="#D4D6D6"/>
<path d="M112 48H97C96.4 48 96 47.6 96 47V34C96 33.4 96.4 33 97 33H112C112.6 33 113 33.4 113 34V47C113 47.6 112.6 48 112 48ZM98 46H111V35H98V46Z" fill="#6B3C1C"/>
<path d="M101 35C100.4 35 100 34.6 100 34V25C100 24.4 100.4 24 101 24C101.6 24 102 24.4 102 25V34C102 34.6 101.6 35 101 35Z" fill="#6B3C1C"/>
<path d="M108 35C107.4 35 107 34.6 107 34V29C107 28.4 107.4 28 108 28C108.6 28 109 28.4 109 29V34C109 34.6 108.6 35 108 35Z" fill="#6B3C1C"/>
<path d="M99 50H97V53H99V50Z" fill="#6B3C1C"/>
<path d="M103 50H101V53H103V50Z" fill="#6B3C1C"/>
<path d="M102 37H100V40H102V37Z" fill="#6B3C1C"/>
<path d="M106 37H104V40H106V37Z" fill="#6B3C1C"/>
<path d="M107 50H105V53H107V50Z" fill="#6B3C1C"/>
<path d="M111 50H109V53H111V50Z" fill="#6B3C1C"/>
<path d="M99 56H97V59H99V56Z" fill="#6B3C1C"/>
<path d="M103 56H101V59H103V56Z" fill="#6B3C1C"/>
<path d="M107 56H105V59H107V56Z" fill="#6B3C1C"/>
<path d="M111 56H109V59H111V56Z" fill="#6B3C1C"/>
<path d="M99 62H97V65H99V62Z" fill="#6B3C1C"/>
<path d="M103 62H101V65H103V62Z" fill="#6B3C1C"/>
<path d="M107 62H105V65H107V62Z" fill="#6B3C1C"/>
<path d="M111 62H109V65H111V62Z" fill="#6B3C1C"/>
<path d="M99 68H97V71H99V68Z" fill="#6B3C1C"/>
<path d="M103 68H101V71H103V68Z" fill="#6B3C1C"/>
<path d="M107 68H105V71H107V68Z" fill="#6B3C1C"/>
<path d="M111 68H109V71H111V68Z" fill="#6B3C1C"/>
<path d="M99 74H97V77H99V74Z" fill="#6B3C1C"/>
<path d="M103 74H101V77H103V74Z" fill="#6B3C1C"/>
<path d="M107 74H105V77H107V74Z" fill="#6B3C1C"/>
<path d="M111 74H109V77H111V74Z" fill="#6B3C1C"/>
<path d="M99 80H97V83H99V80Z" fill="#6B3C1C"/>
<path d="M103 80H101V83H103V80Z" fill="#6B3C1C"/>
<path d="M107 80H105V83H107V80Z" fill="#6B3C1C"/>
<path d="M111 80H109V83H111V80Z" fill="#6B3C1C"/>
<path d="M99 86H97V89H99V86Z" fill="#6B3C1C"/>
<path d="M103 86H101V89H103V86Z" fill="#6B3C1C"/>
<path d="M107 86H105V89H107V86Z" fill="#6B3C1C"/>
<path d="M111 86H109V89H111V86Z" fill="#6B3C1C"/>
<path d="M99 92H97V95H99V92Z" fill="#6B3C1C"/>
<path d="M103 92H101V95H103V92Z" fill="#6B3C1C"/>
<path d="M107 92H105V95H107V92Z" fill="#6B3C1C"/>
<path d="M111 92H109V95H111V92Z" fill="#6B3C1C"/>
<path d="M99 98H97V101H99V98Z" fill="#6B3C1C"/>
<path d="M103 98H101V101H103V98Z" fill="#6B3C1C"/>
<path d="M107 98H105V101H107V98Z" fill="#6B3C1C"/>
<path d="M111 98H109V101H111V98Z" fill="#6B3C1C"/>
<path d="M109 42C108.4 42 108 41.6 108 41V37C108 36.4 108.4 36 109 36C109.6 36 110 36.4 110 37V41C110 41.6 109.6 42 109 42Z" fill="white"/>
<path d="M49 38H32V104H49V38Z" fill="#D4D6D6"/>
<path d="M49 105H32C31.4 105 31 104.6 31 104V38C31 37.4 31.4 37 32 37H49C49.6 37 50 37.4 50 38V104C50 104.5 49.6 105 49 105ZM33 103H48V39H33V103Z" fill="#6B3C1C"/>
<path d="M38 105H36C35.4 105 35 104.6 35 104V43C35 42.4 35.4 42 36 42H38C38.6 42 39 42.4 39 43V104C39 104.6 38.6 105 38 105Z" fill="#6B3C1C"/>
<path d="M45 105H43C42.4 105 42 104.6 42 104V43C42 42.4 42.4 42 43 42H45C45.6 42 46 42.4 46 43V104C46 104.6 45.6 105 45 105Z" fill="#6B3C1C"/>
<path opacity="0.5" d="M44 101C43.4 101 43 100.6 43 100V57C43 56.4 43.4 56 44 56C44.6 56 45 56.4 45 57V100C45 100.6 44.6 101 44 101Z" fill="white"/>
<path opacity="0.5" d="M44 53C43.4 53 43 52.6 43 52V44C43 43.4 43.4 43 44 43C44.6 43 45 43.4 45 44V52C45 52.6 44.6 53 44 53Z" fill="white"/>
<path opacity="0.5" d="M37 83C36.4 83 36 82.6 36 82V58C36 57.4 36.4 57 37 57C37.6 57 38 57.4 38 58V82C38 82.6 37.6 83 37 83Z" fill="white"/>
<path d="M67 67H49V104H67V67Z" fill="#415E6D"/>
<path d="M67 105H49C48.4 105 48 104.6 48 104V67C48 66.4 48.4 66 49 66H67C67.6 66 68 66.4 68 67V104C68 104.6 67.6 105 67 105ZM50 103H66V68H50V103Z" fill="#6B3C1C"/>
<path d="M63 71H53V104H63V71Z" fill="#3AD0F9"/>
<path d="M63 105H53C52.4 105 52 104.6 52 104V71C52 70.4 52.4 70 53 70H63C63.6 70 64 70.4 64 71V104C64 104.6 63.6 105 63 105ZM54 103H62V72H54V103Z" fill="#6B3C1C"/>
<path d="M55.5 86C55.2 86 55 85.9 54.8 85.7C54.4 85.3 54.4 84.7 54.8 84.3L58.3 80.8C58.7 80.4 59.3 80.4 59.7 80.8C60.1 81.2 60.1 81.8 59.7 82.2L56.2 85.7C56 85.9 55.8 86 55.5 86Z" fill="white"/>
<path d="M55.5 79.5C55.2 79.5 55 79.4 54.8 79.2C54.4 78.8 54.4 78.2 54.8 77.8L58.3 74.3C58.7 73.9 59.3 73.9 59.7 74.3C60.1 74.7 60.1 75.3 59.7 75.7L56.2 79.2C56 79.4 55.8 79.5 55.5 79.5Z" fill="white"/>
<path d="M55.5 99C55.2 99 55 98.9 54.8 98.7C54.4 98.3 54.4 97.7 54.8 97.3L58.3 93.8C58.7 93.4 59.3 93.4 59.7 93.8C60.1 94.2 60.1 94.8 59.7 95.2L56.2 98.7C56 98.9 55.8 99 55.5 99Z" fill="white"/>
<path d="M94 83H82V104H94V83Z" fill="#415E6D"/>
<path d="M94 105H82C81.4 105 81 104.6 81 104V83C81 82.4 81.4 82 82 82H94C94.6 82 95 82.4 95 83V104C95 104.6 94.6 105 94 105ZM83 103H93V84H83V103Z" fill="#6B3C1C"/>
<path d="M87 86H85V89H87V86Z" fill="#F99900"/>
<path d="M91 86H89V89H91V86Z" fill="#F99900"/>
<path d="M87 91H85V94H87V91Z" fill="#F99900"/>
<path d="M91 91H89V94H91V91Z" fill="#F99900"/>
<path d="M87 96H85V99H87V96Z" fill="#F99900"/>
<path d="M91 96H89V99H91V96Z" fill="#F99900"/>
</g>
<defs>
<clipPath id="clip0_62_2">
<rect width="128" height="128" fill="white"/>
</clipPath>
</defs>
</svg>
