<svg width="64" height="64" viewBox="0 0 64 64" fill="none" xmlns="http://www.w3.org/2000/svg">
<path d="M32 18C31.4696 18 30.9609 17.7893 30.5858 17.4142C30.2107 17.0391 30 16.5304 30 16V4C30 3.46957 30.2107 2.96086 30.5858 2.58579C30.9609 2.21071 31.4696 2 32 2C32.5304 2 33.0391 2.21071 33.4142 2.58579C33.7893 2.96086 34 3.46957 34 4V16C34 16.5304 33.7893 17.0391 33.4142 17.4142C33.0391 17.7893 32.5304 18 32 18Z" fill="#E6E6E6"/>
<path d="M43.2799 22.7202C42.8835 22.7205 42.496 22.603 42.1665 22.3827C41.837 22.1623 41.5804 21.849 41.4293 21.4825C41.2782 21.1161 41.2394 20.713 41.3179 20.3244C41.3963 19.9358 41.5885 19.5794 41.8699 19.3002L50.3799 10.7902C50.5657 10.6044 50.7863 10.457 51.0291 10.3564C51.2719 10.2559 51.5321 10.2041 51.7949 10.2041C52.0577 10.2041 52.3179 10.2559 52.5607 10.3564C52.8035 10.457 53.0241 10.6044 53.2099 10.7902C53.3957 10.976 53.5431 11.1966 53.6437 11.4394C53.7443 11.6822 53.796 11.9424 53.796 12.2052C53.796 12.468 53.7443 12.7282 53.6437 12.971C53.5431 13.2138 53.3957 13.4344 53.2099 13.6202L44.6999 22.1302C44.5139 22.3174 44.2926 22.4659 44.0489 22.5671C43.8052 22.6684 43.5438 22.7204 43.2799 22.7202Z" fill="#E6E6E6"/>
<path d="M60 34H48C47.4696 34 46.9609 33.7893 46.5858 33.4142C46.2107 33.0391 46 32.5304 46 32C46 31.4696 46.2107 30.9609 46.5858 30.5858C46.9609 30.2107 47.4696 30 48 30H60C60.5304 30 61.0391 30.2107 61.4142 30.5858C61.7893 30.9609 62 31.4696 62 32C62 32.5304 61.7893 33.0391 61.4142 33.4142C61.0391 33.7893 60.5304 34 60 34Z" fill="#E6E6E6"/>
<path d="M51.8 53.7998C51.5361 53.8 51.2748 53.748 51.0311 53.6467C50.7874 53.5455 50.5661 53.397 50.3801 53.2098L41.87 44.6998C41.4948 44.3245 41.2839 43.8155 41.2839 43.2848C41.2839 42.7541 41.4948 42.2451 41.87 41.8698C42.2453 41.4945 42.7543 41.2837 43.285 41.2837C43.8158 41.2837 44.3248 41.4945 44.7001 41.8698L53.21 50.3798C53.4915 50.6589 53.6836 51.0154 53.7621 51.404C53.8405 51.7925 53.8018 52.1956 53.6507 52.5621C53.4996 52.9286 53.243 53.2419 52.9135 53.4623C52.584 53.6826 52.1964 53.8001 51.8 53.7998Z" fill="#E6E6E6"/>
<path d="M32 62C31.4696 62 30.9609 61.7893 30.5858 61.4142C30.2107 61.0391 30 60.5304 30 60V48C30 47.4696 30.2107 46.9609 30.5858 46.5858C30.9609 46.2107 31.4696 46 32 46C32.5304 46 33.0391 46.2107 33.4142 46.5858C33.7893 46.9609 34 47.4696 34 48V60C34 60.5304 33.7893 61.0391 33.4142 61.4142C33.0391 61.7893 32.5304 62 32 62Z" fill="#E6E6E6"/>
<path d="M12.2001 53.7998C11.8037 53.8001 11.4161 53.6826 11.0866 53.4623C10.7571 53.2419 10.5006 52.9286 10.3495 52.5621C10.1984 52.1956 10.1596 51.7925 10.238 51.404C10.3165 51.0154 10.5086 50.6589 10.7901 50.3798L19.3001 41.8698C19.4859 41.684 19.7065 41.5366 19.9493 41.436C20.1921 41.3355 20.4523 41.2837 20.7151 41.2837C20.9779 41.2837 21.2381 41.3355 21.4809 41.436C21.7237 41.5366 21.9443 41.684 22.1301 41.8698C22.3159 42.0556 22.4633 42.2762 22.5639 42.519C22.6644 42.7618 22.7162 43.022 22.7162 43.2848C22.7162 43.5476 22.6644 43.8078 22.5639 44.0506C22.4633 44.2934 22.3159 44.514 22.1301 44.6998L13.6201 53.2098C13.434 53.397 13.2128 53.5455 12.9691 53.6467C12.7253 53.748 12.464 53.8 12.2001 53.7998Z" fill="#E6E6E6"/>
<path d="M16 34H4C3.46957 34 2.96086 33.7893 2.58579 33.4142C2.21071 33.0391 2 32.5304 2 32C2 31.4696 2.21071 30.9609 2.58579 30.5858C2.96086 30.2107 3.46957 30 4 30H16C16.5304 30 17.0391 30.2107 17.4142 30.5858C17.7893 30.9609 18 31.4696 18 32C18 32.5304 17.7893 33.0391 17.4142 33.4142C17.0391 33.7893 16.5304 34 16 34Z" fill="#E6E6E6"/>
<path d="M20.72 22.7202C20.4561 22.7204 20.1947 22.6684 19.951 22.5671C19.7073 22.4659 19.486 22.3174 19.3 22.1302L10.79 13.6202C10.6041 13.4344 10.4567 13.2138 10.3562 12.971C10.2556 12.7282 10.2039 12.468 10.2039 12.2052C10.2039 11.9424 10.2556 11.6822 10.3562 11.4394C10.4567 11.1966 10.6041 10.976 10.79 10.7902C10.9758 10.6044 11.1964 10.457 11.4392 10.3564C11.682 10.2559 11.9422 10.2041 12.205 10.2041C12.4678 10.2041 12.728 10.2559 12.9708 10.3564C13.2135 10.457 13.4341 10.6044 13.62 10.7902L22.13 19.3002C22.4114 19.5794 22.6036 19.9358 22.682 20.3244C22.7605 20.713 22.7217 21.1161 22.5706 21.4825C22.4195 21.849 22.1629 22.1623 21.8334 22.3827C21.5039 22.603 21.1164 22.7205 20.72 22.7202Z" fill="#E6E6E6"/>
</svg>
