<svg width="29" height="29" viewBox="0 0 29 29" fill="none" xmlns="http://www.w3.org/2000/svg">
<path d="M3 13H1C0.4 13 0 12.6 0 12C0 11.4 0.4 11 1 11H3C3.6 11 4 11.4 4 12C4 12.6 3.6 13 3 13Z" fill="#FCCF3A"/>
<path d="M18.4 6.60001C18.1 6.60001 17.9 6.50001 17.7 6.30001C17.3 5.90001 17.3 5.30001 17.7 4.90001L19.1 3.50001C19.5 3.10001 20.1 3.10001 20.5 3.50001C20.9 3.90001 20.9 4.50001 20.5 4.90001L19.1 6.30001C18.9 6.50001 18.6 6.60001 18.4 6.60001Z" fill="#FCCF3A"/>
<path d="M12 4C11.4 4 11 3.6 11 3V1C11 0.4 11.4 0 12 0C12.6 0 13 0.4 13 1V3C13 3.6 12.6 4 12 4Z" fill="#FCCF3A"/>
<path d="M5.6 6.60001C5.3 6.60001 5.1 6.50001 4.9 6.30001L3.5 4.90001C3.1 4.50001 3.1 3.90001 3.5 3.50001C3.9 3.10001 4.5 3.10001 4.9 3.50001L6.3 4.90001C6.7 5.30001 6.7 5.90001 6.3 6.30001C6.1 6.50001 5.9 6.60001 5.6 6.60001Z" fill="#FCCF3A"/>
<path d="M20.1 29H11.8C8.6 29 6 26.4 6 23.1C6 19.9 8.5 17.3 11.7 17.2C12.9 13.5 16.2 11 20.1 11C25 11 29 15 29 20C29 25 25 29 20.1 29Z" fill="#A5D5F6"/>
<path d="M10.3 15.4C11.8 12.1 14.9 9.7 18.4 9.2C17.3 6.7 14.8 5 12 5C8.1 5 5 8.1 5 12C5 13.9 5.8 15.6 7 16.9C8 16.2 9.1 15.6 10.3 15.4Z" fill="#FCCF3A"/>
</svg>
