<svg width="28" height="29" viewBox="0 0 28 29" fill="none" xmlns="http://www.w3.org/2000/svg">
<path d="M14.6294 29C14.525 29 14.4205 29 14.316 28.9033C13.7935 28.71 13.48 28.2267 13.689 27.6467L15.7789 21.8467C15.9879 21.3633 16.5104 21.0733 17.1374 21.2667C17.6598 21.46 17.9733 21.9433 17.7643 22.5233L15.6744 28.3233C15.4654 28.71 15.0474 29 14.6294 29Z" fill="#63A3D5"/>
<path d="M11.4946 27.0667C11.3901 27.0667 11.2856 27.0667 11.1811 26.97C10.6586 26.7767 10.3451 26.2933 10.5541 25.7133L12.644 19.9133C12.853 19.43 13.3755 19.14 14.0025 19.3333C14.5249 19.5267 14.8384 20.01 14.6294 20.59L12.5395 26.39C12.3305 26.7767 11.9125 27.0667 11.4946 27.0667Z" fill="#63A3D5"/>
<path d="M18.8093 27.0667C18.7048 27.0667 18.6003 27.0667 18.4958 26.97C17.9733 26.7767 17.6598 26.2933 17.8688 25.7133L19.9587 19.9133C20.1677 19.43 20.6902 19.14 21.3172 19.3333C21.8397 19.5267 22.1532 20.01 21.9442 20.59L19.8542 26.39C19.6453 26.7767 19.2273 27.0667 18.8093 27.0667Z" fill="#63A3D5"/>
<path d="M19.1228 9.66669C15.5699 9.66669 12.5395 11.6 11.4946 14.5967C8.56867 14.6934 6.26976 16.82 6.26976 19.3334C6.26976 21.17 7.41922 22.7167 9.09115 23.5867L10.5541 19.43C10.8676 18.6567 11.3901 18.0767 12.1215 17.7867C12.853 17.4 13.689 17.4 14.5249 17.5934C15.3609 17.8834 15.9879 18.3667 16.3014 19.0434C16.4059 19.14 16.4059 19.2367 16.4059 19.43C16.8239 19.43 17.2418 19.43 17.5553 19.5267C17.6598 19.5267 17.6598 19.5267 17.7643 19.6234L17.8688 19.43C18.1823 18.6567 18.7048 18.0767 19.4363 17.7867C20.1677 17.4 21.0037 17.4 21.8397 17.5934C22.6756 17.8834 23.3026 18.3667 23.6161 19.0434C23.9296 19.72 24.0341 20.4934 23.8251 21.2667L23.0936 23.2C25.497 21.9434 27.0645 19.6234 27.0645 17.0134C27.169 12.9534 23.5116 9.66669 19.1228 9.66669Z" fill="#A5D5F6"/>
<path d="M9.92713 12.76C11.5991 9.66667 15.1519 7.73334 19.0183 7.73334C19.2273 7.73334 19.4363 7.73334 19.6453 7.73334C18.9138 3.28667 14.7339 0 9.82263 0C8.98666 0 8.15069 0.0966666 7.31473 0.29C7.00124 0.386667 6.68775 0.773334 6.68775 1.16C6.68775 1.54667 7.00124 1.93333 7.41922 2.12667C9.09116 2.61 10.1361 4.06 10.1361 5.60667C10.1361 7.63667 8.35969 9.37667 6.06077 9.37667C4.38884 9.37667 2.82139 8.31334 2.29891 6.86334C2.19442 6.47667 1.67194 6.18667 1.25395 6.18667C0.835968 6.18667 0.417984 6.47667 0.313488 6.96C0.104496 7.63667 0 8.41 0 9.18334C0 12.3733 1.77643 15.2733 4.70232 16.9167C5.53829 14.8867 7.52372 13.2433 9.92713 12.76Z" fill="#FCCF3A"/>
</svg>
