<svg width="27" height="26" viewBox="0 0 27 26" fill="none" xmlns="http://www.w3.org/2000/svg">
<path d="M9.99999 26C9.79999 26 9.59999 25.9 9.39999 25.8C8.89999 25.5 8.79999 24.9 9.09999 24.4L12.1 20H9.99999C9.59999 20 9.29999 19.8 9.09999 19.5C8.89999 19.2 8.89999 18.8 9.09999 18.5L13.1 12.5C13.4 12 14 11.9 14.5 12.2C15 12.5 15.1 13.1 14.8 13.6L11.8 18H14C14.4 18 14.7 18.2 14.9 18.5C15.1 18.8 15.1 19.2 14.9 19.5L10.9 25.5C10.6 25.8 10.3 26 9.99999 26Z" fill="#FCCF3A"/>
<path d="M16 0C11.6 0 7.8 2.8 6.5 7C2.9 7 0 9.9 0 13.5C0 17.1 2.9 20 6.5 20H7.2C6.9 19.1 7 18.1 7.5 17.3L11.5 11.3C11.9 10.6 12.6 10.2 13.4 10C14.2 9.8 15 10 15.7 10.4C16.4 10.8 16.8 11.5 17 12.3C17.2 13.1 17 13.9 16.6 14.6L15.5 16.3C16 16.6 16.5 17 16.8 17.5C17.2 18.2 17.2 19 17 19.7H18C18.1 19.7 18.1 19.7 18.2 19.7C22.8 18.7 26.2 14.6 26.2 9.9C26 4.5 21.5 0 16 0Z" fill="#A5D5F6"/>
</svg>
