<svg width="28" height="28" viewBox="0 0 28 28" fill="none" xmlns="http://www.w3.org/2000/svg">
<path d="M14 6C9.6 6 6 9.6 6 14C6 18.4 9.6 22 14 22C18.4 22 22 18.4 22 14C22 9.6 18.4 6 14 6Z" fill="#FCCF3A"/>
<path d="M14 5C14.6 5 15 4.6 15 4V1C15 0.4 14.6 0 14 0C13.4 0 13 0.4 13 1V4C13 4.6 13.4 5 14 5Z" fill="#FCCF3A"/>
<path d="M6.2 7.6C6.4 7.8 6.7 7.9 6.9 7.9C7.1 7.9 7.4 7.8 7.6 7.6C8 7.2 8 6.6 7.6 6.2L5.5 4.1C5.1 3.7 4.5 3.7 4.1 4.1C3.7 4.5 3.7 5.1 4.1 5.5L6.2 7.6Z" fill="#FCCF3A"/>
<path d="M5 14C5 13.4 4.6 13 4 13H1C0.4 13 0 13.4 0 14C0 14.6 0.4 15 1 15H4C4.6 15 5 14.6 5 14Z" fill="#FCCF3A"/>
<path d="M6.2 20.4L4.1 22.5C3.7 22.9 3.7 23.5 4.1 23.9C4.3 24.1 4.6 24.2 4.8 24.2C5 24.2 5.3 24.1 5.5 23.9L7.6 21.8C8 21.4 8 20.8 7.6 20.4C7.2 20 6.6 20 6.2 20.4Z" fill="#FCCF3A"/>
<path d="M14 23C13.4 23 13 23.4 13 24V27C13 27.6 13.4 28 14 28C14.6 28 15 27.6 15 27V24C15 23.4 14.6 23 14 23Z" fill="#FCCF3A"/>
<path d="M21.8 20.4C21.4 20 20.8 20 20.4 20.4C20 20.8 20 21.4 20.4 21.8L22.5 23.9C22.7 24.1 23 24.2 23.2 24.2C23.4 24.2 23.7 24.1 23.9 23.9C24.3 23.5 24.3 22.9 23.9 22.5L21.8 20.4Z" fill="#FCCF3A"/>
<path d="M27 13H24C23.4 13 23 13.4 23 14C23 14.6 23.4 15 24 15H27C27.6 15 28 14.6 28 14C28 13.4 27.6 13 27 13Z" fill="#FCCF3A"/>
<path d="M21.1 7.9C21.4 7.9 21.6 7.8 21.8 7.6L23.9 5.5C24.3 5.1 24.3 4.5 23.9 4.1C23.5 3.7 22.9 3.7 22.5 4.1L20.4 6.2C20 6.6 20 7.2 20.4 7.6C20.6 7.8 20.8 7.9 21.1 7.9Z" fill="#FCCF3A"/>
</svg>
