<svg width="24" height="22" viewBox="0 0 24 22" fill="none" xmlns="http://www.w3.org/2000/svg">
<path d="M13 0C12.8295 0 12.5736 0 12.4031 0H12.3178C11.9767 0 11.6357 0.338462 11.5504 0.676923C11.4651 1.01538 11.6357 1.43846 11.9767 1.60769C14.1938 2.79231 15.5581 5.07692 15.5581 7.61538C15.5581 11.3385 12.4884 14.3846 8.73643 14.3846C6.77519 14.3846 4.81395 13.5385 3.53488 12.0154C3.27907 11.7615 2.85271 11.6769 2.51163 11.7615C2.17054 11.9308 2 12.2692 2 12.6923C2.85271 18.1077 7.45736 22 12.9147 22C19.0543 22 24 17.0923 24 11C24 4.90769 19.1395 0 13 0Z" fill="#FCCF3A"/>
<path d="M3.2 7.36C3.28 7.76 3.6 8 4 8C4.4 8 4.72 7.76 4.8 7.36C5.2 5.6 5.6 5.2 7.44 4.72C7.76 4.72 8 4.4 8 4C8 3.6 7.76 3.28 7.36 3.2C5.6 2.8 5.2 2.4 4.8 0.64C4.72 0.24 4.4 0 4 0C3.6 0 3.28 0.24 3.2 0.64C2.8 2.4 2.4 2.8 0.64 3.2C0.24 3.28 0 3.6 0 4C0 4.4 0.24 4.72 0.64 4.8C2.4 5.2 2.8 5.6 3.2 7.36Z" fill="#FCCF3A"/>
<path d="M7.75 8.75C7.3 8.75 7 9.05 7 9.5C7 9.95 7.3 10.25 7.75 10.25C7.75 10.7 8.05 11 8.5 11C8.95 11 9.25 10.7 9.25 10.25C9.7 10.25 10 9.95 10 9.5C10 9.05 9.7 8.75 9.25 8.75C9.25 8.3 8.95 8 8.5 8C8.05 8 7.75 8.3 7.75 8.75Z" fill="#FCCF3A"/>
</svg>
