<svg width="28" height="27" viewBox="0 0 28 27" fill="none" xmlns="http://www.w3.org/2000/svg">
<path d="M19.1 26.9914H10.8C7.6 26.9914 5 24.3914 5 21.0914C5 17.8914 7.5 15.2914 10.7 15.1914C11.9 11.4914 15.2 8.99142 19.1 8.99142C24 8.99142 28 12.9914 28 17.9914C28 22.9914 24 26.9914 19.1 26.9914Z" fill="#A5D5F6"/>
<path d="M4 17.1914C5.1 15.2914 7 13.7914 9.2 13.2914C10.9 9.59143 14.5 7.09143 18.6 6.89143C17.4 2.19143 12.4 -1.00857 7.2 0.291432C6.7 0.391432 6.4 0.791432 6.4 1.19143C6.4 1.59143 6.7 1.99143 7.1 2.19143C8.7 2.69143 9.7 4.19143 9.7 5.79143C9.7 7.89143 8 9.69143 5.8 9.69143C4.2 9.69143 2.7 8.59143 2.2 7.09143C2.1 6.69143 1.7 6.39143 1.2 6.39143C0.8 6.39143 0.4 6.69143 0.3 7.19143C0.0999999 7.89143 0 8.69143 0 9.49143C0 12.5914 1.5 15.4914 4 17.1914Z" fill="#FCCF3A"/>
</svg>
