<svg width="26" height="22" viewBox="0 0 26 22" fill="none" xmlns="http://www.w3.org/2000/svg">
<path d="M16 0C11.6 0 7.8 2.8 6.5 7C3.2 7 0.399998 9.6 0.0999985 12.9C0.0999985 13.2 0.199999 13.5 0.399999 13.7C0.599999 13.9 0.699999 14 0.999999 14H24.5C24.9 14 25.3 13.7 25.4 13.3C25.8 12.2 26 11.1 26 10C26 4.5 21.5 0 16 0Z" fill="#A5D5F6"/>
<path d="M16 17C16 16.4 15.6 16 15 16H1C0.4 16 0 16.4 0 17C0 17.6 0.4 18 1 18H15C15.6 18 16 17.6 16 17Z" fill="#63A3D5"/>
<path d="M24 16H19C18.4 16 18 16.4 18 17C18 17.6 18.4 18 19 18H24C24.6 18 25 17.6 25 17C25 16.4 24.6 16 24 16Z" fill="#63A3D5"/>
<path d="M19 20H5C4.4 20 4 20.4 4 21C4 21.6 4.4 22 5 22H19C19.6 22 20 21.6 20 21C20 20.4 19.6 20 19 20Z" fill="#63A3D5"/>
</svg>
