<svg width="28" height="29" viewBox="0 0 28 29" fill="none" xmlns="http://www.w3.org/2000/svg">
<path d="M2.89037 10.598H0.963455C0.385382 10.598 0 10.9834 0 11.5615C0 12.1396 0.385382 12.5249 0.963455 12.5249H2.89037C3.46844 12.5249 3.85382 12.1396 3.85382 11.5615C3.85382 10.9834 3.46844 10.598 2.89037 10.598Z" fill="#FCCF3A"/>
<path d="M17.7276 6.35882C18.0166 6.35882 18.2093 6.26247 18.402 6.06978L19.7508 4.72094C20.1362 4.33556 20.1362 3.75749 19.7508 3.37211C19.3654 2.98672 18.7874 2.98672 18.402 3.37211L17.0532 4.72094C16.6678 5.10632 16.6678 5.6844 17.0532 6.06978C17.2458 6.26247 17.4385 6.35882 17.7276 6.35882Z" fill="#FCCF3A"/>
<path d="M11.5615 3.85382C12.1395 3.85382 12.5249 3.46844 12.5249 2.89037V0.963455C12.5249 0.385382 12.1395 0 11.5615 0C10.9834 0 10.598 0.385382 10.598 0.963455V2.89037C10.598 3.46844 10.9834 3.85382 11.5615 3.85382Z" fill="#FCCF3A"/>
<path d="M6.06976 6.06978C6.45515 5.6844 6.45515 5.10632 6.06976 4.72094L4.72093 3.37211C4.33555 2.98672 3.75747 2.98672 3.37209 3.37211C2.98671 3.75749 2.98671 4.33556 3.37209 4.72094L4.72093 6.06978C4.91362 6.26247 5.20265 6.35882 5.39535 6.35882C5.58804 6.35882 5.87707 6.26247 6.06976 6.06978Z" fill="#FCCF3A"/>
<path d="M18.5947 21.2924C18.113 21.0997 17.5349 21.3887 17.3422 21.8704L15.4153 27.6512C15.2226 28.1329 15.5116 28.711 15.9933 28.9036C16.0897 28.9036 16.186 29 16.2824 29C16.6678 29 17.0531 28.711 17.1495 28.3256L19.0764 22.5448C19.3654 21.9668 19.0764 21.3887 18.5947 21.2924Z" fill="#63A3D5"/>
<path d="M15.7043 19.3654C15.2226 19.1727 14.6445 19.4618 14.4518 19.9435L12.5249 25.7242C12.3322 26.206 12.6213 26.784 13.103 26.9767C13.1993 26.9767 13.2957 27.0731 13.392 27.0731C13.7774 27.0731 14.1628 26.784 14.2591 26.3987L16.186 20.6179C16.4751 20.0399 16.186 19.4618 15.7043 19.3654Z" fill="#63A3D5"/>
<path d="M22.4485 19.3654C21.9668 19.1727 21.3887 19.4618 21.196 19.9435L19.2691 25.7242C19.0764 26.206 19.3654 26.784 19.8472 26.9767C19.9435 26.9767 20.0399 27.0731 20.1362 27.0731C20.5216 27.0731 20.907 26.784 21.0033 26.3987L22.9302 20.6179C23.2193 20.0399 22.9302 19.4618 22.4485 19.3654Z" fill="#63A3D5"/>
<path d="M20.5216 9.63455C17.2459 9.63455 14.4518 11.5615 13.4884 14.5482C10.8871 14.6445 8.76746 16.7641 8.76746 19.3654C8.76746 21.196 9.82726 22.7375 11.3688 23.6047L12.7176 19.4618C13.1993 17.9203 14.8372 17.1495 16.3788 17.6312C17.2459 17.9203 17.9203 18.5947 18.2093 19.4618C18.5947 19.4618 18.9801 19.4618 19.2691 19.5581C19.3655 19.5581 19.3655 19.5581 19.3655 19.6545L19.4618 19.4618C19.9435 17.9203 21.5814 17.1495 23.1229 17.6312C24.6645 18.113 25.4352 19.7508 24.9535 21.2924L24.2791 23.2193C26.495 21.9668 27.9402 19.6545 27.9402 17.0532C27.9402 12.9103 24.5681 9.63455 20.5216 9.63455Z" fill="#A5D5F6"/>
<path d="M17.4385 8.18935C16.186 6.1661 14.0664 4.81726 11.5615 4.81726C7.80399 4.81726 4.81728 7.80397 4.81728 11.5614C4.81728 13.5847 5.78073 15.5116 7.22591 16.7641C8.09302 14.7408 9.82724 13.1993 12.0432 12.7176C13.1993 10.598 15.1262 8.96012 17.4385 8.18935Z" fill="#FCCF3A"/>
</svg>
