<svg width="26" height="26" viewBox="0 0 26 26" fill="none" xmlns="http://www.w3.org/2000/svg">
<path d="M5.99999 24C5.89999 24 5.69999 24 5.59999 23.9C5.09999 23.7 4.89999 23.1 5.09999 22.6L8.09999 15.6C8.29999 15.1 8.89999 14.9 9.39999 15.1C9.89999 15.3 10.1 15.9 9.89999 16.4L6.89999 23.4C6.79999 23.8 6.39999 24 5.99999 24Z" fill="#63A3D5"/>
<path d="M8.99999 26C8.89999 26 8.69999 26 8.59999 25.9C8.09999 25.7 7.89999 25.1 8.09999 24.6L11.1 17.6C11.3 17.1 11.9 16.9 12.4 17.1C12.9 17.3 13.1 17.9 12.9 18.4L9.89999 25.4C9.79999 25.8 9.39999 26 8.99999 26Z" fill="#63A3D5"/>
<path d="M14 24C13.9 24 13.7 24 13.6 23.9C13.1 23.7 12.9 23.1 13.1 22.6L16.1 15.6C16.3 15.1 16.9 14.9 17.4 15.1C17.9 15.3 18.1 15.9 17.9 16.4L14.9 23.4C14.8 23.8 14.4 24 14 24Z" fill="#63A3D5"/>
<path d="M16 0C11.6 0 7.8 2.8 6.5 7C2.9 7 0 9.9 0 13.5C0 15.9 1.3 18.1 3.4 19.2C3.7 19.3 3.9 19.5 4.2 19.6L6.2 14.8C6.5 14.1 7.1 13.5 7.8 13.2C8.5 12.9 9.4 12.9 10.1 13.2C10.8 13.5 11.4 14.1 11.7 14.8V14.9C12.2 14.9 12.6 14.9 13.1 15.1C13.4 15.2 13.6 15.4 13.8 15.5L14.2 14.6C14.5 13.9 15.1 13.3 15.8 13C16.5 12.7 17.4 12.7 18.1 13C18.8 13.3 19.4 13.9 19.7 14.6C20 15.3 20 16.2 19.7 16.9L18.7 19.3C22.9 18.1 26 14.3 26 9.7C26 4.5 21.5 0 16 0Z" fill="#A5D5F6"/>
</svg>
