<svg width="26" height="26" viewBox="0 0 26 26" fill="none" xmlns="http://www.w3.org/2000/svg">
<path d="M18.7 19.6L16.8 20.1L15 19L16.8 17.9L18.7 18.4C18.8 18.4 18.9 18.4 19 18.4C19.4 18.4 19.8 18.1 20 17.7C20.1 17.2 19.8 16.6 19.3 16.5L17.9 16.1L18.3 14.7C18.4 14.2 18.1 13.6 17.6 13.5C17.1 13.4 16.5 13.7 16.4 14.2L15.9 16.1L14 17.3V15.2L15.4 13.8C15.8 13.4 15.8 12.8 15.4 12.4C15 12 14.4 12 14 12.4L13 13.4L12 12.4C11.6 12 11 12 10.6 12.4C10.2 12.8 10.2 13.4 10.6 13.8L12 15.2V17.3L10.2 16.2L9.7 14.3C9.6 13.8 9 13.4 8.5 13.6C8 13.7 7.6 14.3 7.8 14.8L8.2 16.2L6.8 16.6C6.3 16.7 5.90001 17.3 6.10001 17.8C6.20001 18.2 6.60001 18.5 7.10001 18.5C7.20001 18.5 7.3 18.5 7.4 18.5L9.3 18L11 19L9.2 20.1L7.3 19.6C6.8 19.5 6.20001 19.8 6.10001 20.3C6.00001 20.8 6.3 21.4 6.8 21.5L8.2 21.9L7.8 23.3C7.7 23.8 8 24.4 8.5 24.5C8.6 24.5 8.7 24.5 8.8 24.5C9.2 24.5 9.6 24.2 9.8 23.8L10.3 21.9L12.1 20.8V22.9L10.7 24.3C10.3 24.7 10.3 25.3 10.7 25.7C11.1 26.1 11.7 26.1 12.1 25.7L13.1 24.7L14.1 25.7C14.3 25.9 14.6 26 14.8 26C15 26 15.3 25.9 15.5 25.7C15.9 25.3 15.9 24.7 15.5 24.3L14 22.9V20.8L15.8 21.9L16.3 23.8C16.4 24.2 16.8 24.5 17.3 24.5C17.4 24.5 17.5 24.5 17.6 24.5C18.1 24.4 18.5 23.8 18.3 23.3L17.9 21.9L19.3 21.5C19.8 21.4 20.2 20.8 20 20.3C19.8 19.7 19.3 19.4 18.7 19.6Z" fill="#63A3D5"/>
<path d="M16 0C11.6 0 7.8 2.8 6.5 7C2.9 7 0 9.9 0 13.5C0 15.9 1.3 18.1 3.4 19.2C3.7 19.3 3.9 19.5 4.2 19.6C4.3 19.4 4.3 19.2 4.4 19.1C4.3 18.9 4.2 18.6 4.1 18.4C3.9 17.5 4 16.7 4.4 16C4.7 15.5 5.2 15.1 5.7 14.8C5.7 14.2 5.8 13.6 6.1 13.1C6.5 12.4 7.1 11.9 7.9 11.7C8.2 11.6 8.4 11.6 8.7 11.6C8.8 11.4 9 11.2 9.2 11C10.2 10 11.9 9.8 13 10.6C14.2 9.8 15.8 9.9 16.8 11C17 11.2 17.1 11.4 17.3 11.6C17.6 11.6 17.8 11.6 18.1 11.7C18.9 11.9 19.5 12.4 19.9 13.1C20.2 13.6 20.3 14.2 20.3 14.8C20.8 15.1 21.3 15.5 21.6 16C22 16.6 22.1 17.3 21.9 18C24.4 16.2 26 13.3 26 10C26 4.5 21.5 0 16 0Z" fill="#A5D5F6"/>
</svg>
